<svg width="217" height="217" viewBox="0 0 217 217" fill="none" xmlns="http://www.w3.org/2000/svg">
<g clip-path="url(#clip0_3_70403)">
<rect width="217" height="217" fill="#F8F8F8"/>
<path d="M172.279 46.2781L29.8904 65.8542L55.893 254.985L198.281 235.409L172.279 46.2781Z" fill="#FFD600"/>
<g opacity="0.1">
<path d="M172.278 46.2783L29.89 65.8545L55.8926 254.986L198.281 235.409L172.278 46.2783Z" fill="#626262"/>
</g>
<path d="M176.147 45.746L33.7584 65.3221L59.7609 254.453L202.149 234.877L176.147 45.746Z" fill="#FFD600"/>
<path d="M168.91 54.4308L43.4421 73.3124L69.039 243.403L194.507 224.521L168.91 54.4308Z" fill="#EBEBEB"/>
<path d="M46.0889 70.7693L65.8235 241.639L191.866 227.082L172.132 56.212L46.0889 70.7693Z" fill="#DBDBDB"/>
<path d="M168.174 55.3451L42.4761 72.6267L65.9038 243.029L191.602 225.748L168.174 55.3451Z" fill="white"/>
<path d="M157.709 85.7444L60.7475 99.0751L60.9367 100.451L157.898 87.1208L157.709 85.7444Z" fill="#626262"/>
<path d="M158.449 91.1279L61.4877 104.458L61.6769 105.835L158.638 92.5042L158.449 91.1279Z" fill="#626262"/>
<path d="M159.187 96.5023L62.2261 109.833L62.4153 111.209L159.376 97.8786L159.187 96.5023Z" fill="#626262"/>
<path d="M159.927 101.886L62.9663 115.216L63.1555 116.593L160.117 103.262L159.927 101.886Z" fill="#626262"/>
<path d="M160.667 107.26L63.7056 120.591L63.8948 121.967L160.856 108.637L160.667 107.26Z" fill="#626262"/>
<path d="M161.407 112.644L64.4458 125.974L64.635 127.351L161.596 114.02L161.407 112.644Z" fill="#626262"/>
<path d="M162.145 118.018L65.1843 131.349L65.3735 132.725L162.335 119.394L162.145 118.018Z" fill="#626262"/>
<path d="M162.885 123.402L65.9244 136.732L66.1137 138.109L163.075 124.778L162.885 123.402Z" fill="#626262"/>
<path d="M163.626 128.785L66.6646 142.116L66.8538 143.492L163.815 130.161L163.626 128.785Z" fill="#626262"/>
<path d="M102.796 142.624L67.4039 147.49L67.5932 148.867L102.986 144.001L102.796 142.624Z" fill="#626262"/>
<path d="M165.844 144.917L68.8826 158.248L69.0718 159.624L166.033 146.294L165.844 144.917Z" fill="#626262"/>
<path d="M166.584 150.301L69.6228 163.632L69.812 165.008L166.773 151.677L166.584 150.301Z" fill="#626262"/>
<path d="M167.323 155.675L70.3621 169.006L70.5513 170.382L167.512 157.052L167.323 155.675Z" fill="#626262"/>
<path d="M168.063 161.059L71.1023 174.39L71.2915 175.766L168.253 162.435L168.063 161.059Z" fill="#626262"/>
<path d="M168.802 166.433L71.8407 179.764L72.0299 181.14L168.991 167.81L168.802 166.433Z" fill="#626262"/>
<path d="M169.542 171.817L72.5809 185.147L72.7701 186.524L169.731 173.193L169.542 171.817Z" fill="#626262"/>
<path d="M132.781 182.347L73.3202 190.522L73.5094 191.898L132.97 183.723L132.781 182.347Z" fill="#626262"/>
<path d="M173.129 197.906L130.576 203.756L130.765 205.133L173.318 199.282L173.129 197.906Z" fill="#626262"/>
<path d="M130.331 211.521C131.293 210.643 132.28 209.815 133.306 209.017C134.344 208.236 135.39 207.453 136.616 206.947C136.766 206.873 136.93 206.842 137.091 206.784C137.223 206.713 137.518 206.725 137.655 206.884C137.918 207.185 137.956 207.526 138.019 207.855C138.109 208.508 138.11 209.165 138.085 209.816C138.033 211.119 137.891 212.408 137.714 213.701C137.348 216.272 136.866 218.833 136.154 221.336C135.965 221.965 135.775 222.586 135.477 223.195C135.401 223.347 135.314 223.493 135.184 223.644C135.123 223.714 135.038 223.806 134.873 223.837C134.787 223.858 134.676 223.82 134.626 223.782L134.496 223.676C134.213 223.36 134.148 223.014 134.085 222.685C133.884 221.355 134.042 220.046 134.237 218.759C134.451 217.469 134.764 216.201 135.19 214.971C135.634 213.748 136.149 212.523 137.021 211.507C137.468 211.01 138.023 210.597 138.682 210.417C139.007 210.328 139.357 210.289 139.696 210.367C140.08 210.447 140.291 210.755 140.501 210.993C140.705 211.249 140.907 211.496 141.139 211.695C141.378 211.884 141.673 211.968 141.95 211.85C142.513 211.621 142.977 211.123 143.431 210.679C143.657 210.452 143.882 210.217 144.127 209.997C144.255 209.891 144.372 209.777 144.511 209.687C144.642 209.607 144.826 209.466 145.038 209.588C145.334 209.867 145.32 210.215 145.481 210.485C145.602 210.78 145.93 210.912 146.201 210.813C146.705 210.477 147.069 209.894 147.443 209.39C147.814 208.86 148.166 208.323 148.526 207.777C149.229 206.695 149.922 205.597 150.652 204.52C151.013 203.982 151.393 203.451 151.792 202.935C151.996 202.676 152.201 202.426 152.445 202.197C152.563 202.083 152.689 201.968 152.845 201.876C152.927 201.829 153.001 201.783 153.115 201.776C153.228 201.761 153.36 201.814 153.433 201.892C153.692 202.23 153.677 202.569 153.705 202.902C153.724 203.237 153.706 203.559 153.681 203.891C153.629 204.546 153.54 205.188 153.424 205.834C153.184 207.119 152.879 208.386 152.381 209.608C152.245 209.911 152.109 210.213 151.882 210.493C151.775 210.623 151.596 210.807 151.347 210.797C151.161 210.805 150.98 210.777 150.812 210.72C150.133 210.494 149.57 210.012 149.298 209.322C149.238 209.144 149.2 208.936 149.293 208.71C149.331 208.598 149.415 208.498 149.514 208.44C149.61 208.365 149.738 208.329 149.835 208.325C150.221 208.29 150.532 208.362 150.86 208.423C151.509 208.556 152.128 208.737 152.755 208.908C153.384 209.088 154.003 209.269 154.619 209.424C154.931 209.497 155.244 209.578 155.552 209.625C155.706 209.648 155.859 209.662 155.992 209.662C156.115 209.654 156.226 209.621 156.331 209.544C156.776 209.234 157.025 208.588 157.439 208.052C157.651 207.783 157.94 207.495 158.354 207.411C158.45 207.398 158.607 207.376 158.764 207.488C158.914 207.609 158.935 207.766 158.949 207.862C158.969 208.072 158.938 208.236 158.925 208.398C158.877 208.697 158.893 209.068 158.973 209.074C159.072 209.149 159.439 209.037 159.699 208.93C160.262 208.702 160.74 208.299 161.203 207.862C161.439 207.644 161.673 207.407 161.947 207.201C162.23 207.002 162.537 206.783 162.983 206.801C163.779 206.905 164.265 207.406 164.794 207.768C165.05 207.955 165.309 208.159 165.563 208.266C165.686 208.32 165.794 208.332 165.817 208.302C165.914 208.235 166.041 208.129 166.151 208.025C166.606 207.59 167.028 207.106 167.43 206.607C168.225 205.61 168.975 204.548 169.52 203.408C169.77 202.841 170.003 202.215 169.909 201.66C169.83 201.085 169.202 200.905 168.57 200.894C167.31 200.828 166.029 201.066 164.814 201.464C164.212 201.662 163.616 201.912 163.065 202.228C162.794 202.389 162.526 202.568 162.315 202.784C162.104 202.99 161.93 203.271 162.022 203.49C162.124 203.715 162.429 203.869 162.708 203.963C162.998 204.065 163.324 204.118 163.637 204.199C164.267 204.326 164.903 204.434 165.541 204.488C168.114 204.738 170.702 204.391 173.281 204.169L173.287 204.213C170.716 204.495 168.13 204.922 165.527 204.712C164.881 204.659 164.23 204.571 163.591 204.445C163.271 204.374 162.953 204.32 162.628 204.214C162.32 204.105 161.965 203.977 161.771 203.604C161.607 203.183 161.885 202.816 162.111 202.59C162.353 202.344 162.628 202.155 162.915 201.982C163.48 201.638 164.092 201.377 164.712 201.167C165.95 200.748 167.262 200.479 168.591 200.527C168.913 200.545 169.271 200.567 169.612 200.724C169.961 200.872 170.24 201.224 170.3 201.597C170.421 202.344 170.155 202.993 169.9 203.596C169.348 204.808 168.59 205.879 167.773 206.906C167.363 207.415 166.934 207.909 166.448 208.375C166.322 208.49 166.204 208.604 166.033 208.716C165.77 208.868 165.527 208.777 165.358 208.711C165.017 208.554 164.758 208.35 164.492 208.156C163.979 207.783 163.447 207.332 162.935 207.287C162.455 207.282 161.967 207.802 161.502 208.23C161.031 208.676 160.499 209.131 159.852 209.397C159.527 209.486 159.23 209.714 158.705 209.511C158.443 209.351 158.395 209.065 158.39 208.897C158.381 208.703 158.403 208.54 158.425 208.378C158.439 208.225 158.46 208.053 158.455 207.947C158.446 207.886 158.426 207.871 158.447 207.895C158.476 207.909 158.447 207.895 158.395 207.902C158.16 207.935 157.939 208.134 157.757 208.363C157.378 208.832 157.167 209.491 156.538 209.951C156.384 210.06 156.181 210.133 155.978 210.143C155.793 210.151 155.622 210.13 155.449 210.1C155.113 210.049 154.8 209.968 154.479 209.887C153.844 209.726 153.223 209.536 152.604 209.355C151.984 209.174 151.365 208.993 150.744 208.866C150.443 208.809 150.114 208.739 149.843 208.768C149.63 208.77 149.543 208.977 149.642 209.248C149.83 209.772 150.337 210.235 150.886 210.417C151.025 210.46 151.17 210.484 151.303 210.484C151.394 210.498 151.473 210.425 151.573 210.314C151.756 210.093 151.901 209.798 152.031 209.514C152.527 208.345 152.851 207.085 153.104 205.825C153.23 205.195 153.328 204.552 153.382 203.914C153.409 203.591 153.428 203.278 153.42 202.959C153.405 202.66 153.382 202.299 153.233 202.115C153.123 201.962 152.786 202.221 152.582 202.418C152.354 202.635 152.148 202.877 151.943 203.127C151.541 203.626 151.17 204.156 150.799 204.686C150.067 205.754 149.365 206.845 148.652 207.919C148.291 208.457 147.93 208.995 147.551 209.526C147.151 210.043 146.82 210.603 146.235 210.994C145.881 211.132 145.479 210.921 145.338 210.603C145.174 210.315 145.131 209.939 144.939 209.77C144.85 209.702 144.702 209.785 144.58 209.873C144.451 209.961 144.332 210.067 144.214 210.18C143.978 210.399 143.762 210.633 143.528 210.869C143.067 211.323 142.63 211.827 141.993 212.101C141.668 212.252 141.255 212.149 140.985 211.929C140.716 211.718 140.511 211.453 140.299 211.207C140.089 210.969 139.884 210.705 139.612 210.662C139.32 210.605 139.004 210.63 138.707 210.725C138.11 210.904 137.586 211.287 137.172 211.761C136.364 212.733 135.857 213.948 135.436 215.15C135.027 216.369 134.73 217.626 134.531 218.896C134.351 220.164 134.219 221.469 134.416 222.702C134.474 222.996 134.57 223.311 134.727 223.484L134.787 223.53L134.769 223.532C134.761 223.533 134.812 223.517 134.848 223.459C134.932 223.359 135.011 223.224 135.073 223.091C135.342 222.53 135.55 221.916 135.732 221.305C136.458 218.835 136.969 216.289 137.354 213.733C137.542 212.456 137.703 211.173 137.757 209.888C137.784 209.245 137.793 208.596 137.715 207.967C137.673 207.663 137.609 207.325 137.431 207.128C137.339 207.043 137.256 207.019 137.097 207.085C136.944 207.133 136.797 207.162 136.646 207.227C135.469 207.708 134.392 208.46 133.341 209.208C132.302 209.972 131.285 210.778 130.301 211.623L130.27 211.592L130.331 211.521Z" fill="#414141"/>
<path d="M91.479 231.578C85.5207 232.397 79.6088 228.905 77.5906 223.005C75.303 216.308 78.8955 208.998 85.5939 206.719C88.8328 205.617 92.3148 205.83 95.3906 207.351C98.4653 208.863 100.769 211.485 101.88 214.722C102.984 217.97 102.76 221.444 101.248 224.519C99.7358 227.594 97.1147 229.898 93.877 231.009C93.0797 231.278 92.2804 231.468 91.479 231.578ZM88.1278 207.01C87.37 207.114 86.613 207.289 85.8767 207.55C79.6368 209.677 76.2944 216.483 78.4215 222.723C80.5486 228.962 87.3629 232.304 93.5941 230.178C96.6213 229.149 99.0599 227.003 100.468 224.138C101.876 221.273 102.087 218.031 101.049 215.005C100.021 211.978 97.8748 209.539 95.001 208.133C92.8404 207.072 90.4624 206.689 88.1278 207.01Z" fill="#FFD600"/>
<path d="M91.0398 228.514C89.1408 228.775 87.1988 228.465 85.4376 227.598C83.1058 226.454 81.3493 224.459 80.5142 222C79.6791 219.541 79.8472 216.891 80.9911 214.559C82.135 212.227 84.1214 210.472 86.5892 209.635C91.6868 207.914 97.2161 210.624 98.9538 215.71C100.692 220.797 97.9652 226.337 92.8788 228.075C92.2771 228.282 91.6583 228.429 91.0398 228.514ZM88.5318 210.078C87.9743 210.155 87.424 210.284 86.8733 210.475C82.2441 212.052 79.7691 217.097 81.3463 221.726C82.1067 223.964 83.705 225.777 85.8272 226.817C87.9494 227.856 90.3585 228.013 92.5971 227.253C97.2263 225.676 99.7014 220.631 98.1241 216.002C96.7379 211.923 92.6433 209.513 88.5318 210.078Z" fill="#FFD600"/>
<path d="M97.4365 213.83L85.8448 217.787L86.1289 218.619L97.7205 214.662L97.4365 213.83Z" fill="#FFD600"/>
<path d="M134.575 47.9467L72.8326 56.4354L75.4206 75.2597L137.164 66.771L134.575 47.9467Z" fill="#C7C7C7"/>
<path d="M121.164 39.2993L82.8449 44.5676L82.5607 55.0887L124.843 49.2755L121.164 39.2993ZM103.306 49.2988C102.06 49.4701 100.911 48.5985 100.739 47.3529C100.568 46.1072 101.44 44.9578 102.685 44.7866C103.931 44.6153 105.08 45.4868 105.252 46.7325C105.423 47.9782 104.551 49.1275 103.306 49.2988Z" fill="#C7C7C7"/>
<path d="M124.843 49.2754L82.5607 55.0886L82.6278 52.7362L124.013 47.0464L124.843 49.2754Z" fill="#A6A6A6"/>
<path d="M97.6196 83.6665C97.725 84.4331 97.6928 85.1032 97.5268 85.7029C97.3595 86.2939 97.0809 86.7849 96.6908 87.1758L98.2244 88.0655L97.431 89.0089L95.5293 87.8947C95.3088 87.9693 95.0685 88.029 94.8159 88.0637C94.1713 88.1524 93.5661 88.0758 93.0079 87.8242C92.4496 87.5725 91.9953 87.1734 91.6364 86.6281C91.2762 86.0741 91.0434 85.4138 90.9293 84.6485L90.867 84.1955C90.7592 83.4115 90.8028 82.6955 90.9989 82.0561C91.195 81.4167 91.5235 80.9012 91.9856 80.5181C92.4478 80.1351 93.0086 79.8893 93.662 79.7995C94.3153 79.7097 94.9292 79.785 95.4775 80.0292C96.0259 80.2733 96.4801 80.6724 96.8403 81.2264C97.2005 81.7804 97.4345 82.4494 97.5423 83.2334L97.6034 83.6776L97.6196 83.6665ZM96.1596 83.4412C96.0351 82.5353 95.7663 81.8711 95.3706 81.4462C94.9662 81.0225 94.4547 80.8532 93.8363 80.9382C93.2178 81.0233 92.7972 81.3207 92.5233 81.8465C92.2494 82.3723 92.1662 83.0583 92.2761 83.9219L92.3408 84.3923C92.4605 85.2634 92.7282 85.9189 93.135 86.36C93.5418 86.8011 94.0544 86.9791 94.6729 86.8941C95.2913 86.8091 95.7381 86.508 96.0131 85.9909C96.2882 85.4738 96.3591 84.7629 96.2345 83.857L96.1771 83.4388L96.1596 83.4412Z" fill="#626262"/>
<path d="M104.344 78.4196L105.084 83.803C105.202 84.6566 105.025 85.3732 104.544 85.9452C104.064 86.5171 103.376 86.8692 102.461 86.9949C101.546 87.1207 100.772 86.9786 100.164 86.5563C99.557 86.1427 99.1923 85.4917 99.0726 84.6206L98.3336 79.246L99.7274 79.0544L100.468 84.4377C100.542 84.9778 100.737 85.368 101.047 85.6183C101.357 85.8687 101.776 85.953 102.308 85.8799C103.388 85.7314 103.841 85.0921 103.685 83.951L102.95 78.6112L104.344 78.4196Z" fill="#626262"/>
<path d="M112.855 81.5721C112.964 82.3648 112.919 83.0721 112.73 83.7016C112.542 84.331 112.213 84.8466 111.751 85.2297C111.289 85.6127 110.728 85.8585 110.066 85.9495C109.404 86.0405 108.807 85.9628 108.258 85.7099C107.708 85.4571 107.245 85.0592 106.886 84.5139C106.526 83.9599 106.293 83.2996 106.179 82.5342L106.117 82.0812C106.009 81.2973 106.053 80.5812 106.249 79.9419C106.445 79.3025 106.774 78.7869 107.236 78.4039C107.698 78.0208 108.259 77.7751 108.912 77.6852C109.565 77.5954 110.17 77.672 110.719 77.9161C111.267 78.1602 111.721 78.5593 112.082 79.1133C112.442 79.6673 112.676 80.3363 112.784 81.1203L112.845 81.5646L112.855 81.5721ZM111.395 81.3468C111.272 80.4583 111.012 79.7929 110.608 79.3692C110.202 78.9368 109.691 78.7675 109.072 78.8525C108.454 78.9375 108.025 79.2362 107.751 79.762C107.477 80.2878 107.394 80.9738 107.505 81.8461L107.568 82.3078C107.69 83.1963 107.958 83.8518 108.364 84.2842C108.778 84.7154 109.291 84.8934 109.9 84.8096C110.51 84.7257 110.966 84.4235 111.232 83.9076C111.498 83.3917 111.569 82.6807 111.445 81.7748L111.387 81.3567L111.395 81.3468Z" fill="#626262"/>
<path d="M119.161 77.5363L116.652 77.8812L117.604 84.8063L116.219 84.9968L115.267 78.0716L112.776 78.4141L112.621 77.2904L119.006 76.4126L119.161 77.5363Z" fill="#626262"/>
<path d="M125.385 80.0711L122.075 80.5262L122.415 83.0001L126.282 82.4683L126.436 83.5833L121.174 84.3067L120.068 76.2578L125.294 75.5392L125.449 76.6629L121.625 77.1887L121.93 79.41L125.24 78.9549L125.392 80.0612L125.385 80.0711Z" fill="#626262"/>
</g>
<defs>
<clipPath id="clip0_3_70403">
<rect width="217" height="217" fill="white"/>
</clipPath>
</defs>
</svg>
