<svg width="217" height="217" viewBox="0 0 217 217" fill="none" xmlns="http://www.w3.org/2000/svg">
<g clip-path="url(#clip0_3_82029)">
<rect width="217" height="217" fill="#F8F8F8"/>
<g opacity="0.3">
<path d="M133.285 151.419C123.832 156.741 113.012 159.141 102.195 158.314C91.3778 157.487 81.0487 153.471 72.514 146.773C63.9792 140.076 57.6221 130.998 54.2465 120.688C50.8709 110.378 50.6284 99.2981 53.5497 88.85C56.471 78.402 62.4249 69.0548 70.6585 61.9905C78.8921 54.9262 89.0355 50.4621 99.8062 49.1627C110.577 47.8632 121.491 49.7868 131.168 54.6902C140.846 59.5936 148.852 67.2565 154.174 76.71C157.71 82.9866 159.975 89.8984 160.839 97.0505C161.702 104.203 161.149 111.455 159.209 118.393C157.269 125.331 153.981 131.818 149.533 137.485C145.085 143.152 139.564 147.887 133.285 151.419Z" fill="white"/>
<path d="M68.0159 142.874C76.5045 151.17 87.4554 156.49 99.2246 158.033C110.994 159.577 122.946 157.261 133.287 151.434C137.672 148.959 141.7 145.898 145.258 142.335L68.0159 142.874Z" fill="#EBEBEB"/>
<path d="M53.3675 89.4832L159.153 88.7393C157.974 84.5439 156.293 80.5062 154.146 76.7141C151.71 72.3526 148.676 68.3532 145.132 64.8324L67.0079 65.3788C60.4752 72.1153 55.7788 80.4144 53.3675 89.4832Z" fill="#EBEBEB"/>
<path d="M56.1384 125.66L156.903 124.942C158.297 121.626 159.364 118.183 160.091 114.66L52.7979 115.5C53.5644 118.991 54.6836 122.395 56.1384 125.66Z" fill="#EBEBEB"/>
<path d="M51.9439 96.8662L160.689 96.0537C160.595 95.3862 160.503 94.733 160.411 94.0798L52.2201 94.8144C52.105 95.5402 52.0083 96.191 51.9439 96.8662Z" fill="#EBEBEB"/>
<path d="M81.8768 54.5409L130.142 54.2116C128.665 53.4925 127.155 52.8504 125.611 52.2711L86.347 52.551C84.8368 53.1399 83.3508 53.7978 81.8768 54.5409Z" fill="#EBEBEB"/>
</g>
<path d="M160.288 214.08L172.857 206.999L141.731 151.749L129.162 158.831L160.288 214.08Z" fill="#939393"/>
<path d="M160.681 73.029C152.944 59.3132 140.302 49.0346 125.296 44.2595C110.29 39.4844 94.0324 40.5668 79.7919 47.289C65.5514 54.0113 54.3836 65.8751 48.5333 80.4955C42.6831 95.1159 42.5842 111.409 48.2566 126.099C53.929 140.789 64.9521 152.788 79.1099 159.682C93.2678 166.577 109.511 167.857 124.574 163.264C139.636 158.671 152.402 148.547 160.305 134.926C168.208 121.305 170.661 105.198 167.172 89.8416C165.833 83.953 163.646 78.2899 160.681 73.029ZM158.527 91.7961C160.837 102.095 160.043 112.847 156.246 122.695C152.448 132.542 145.817 141.044 137.189 147.124C128.562 153.204 118.326 156.591 107.775 156.857C97.2238 157.123 86.8306 154.255 77.9085 148.616C68.9863 142.978 61.9356 134.821 57.6472 125.177C53.3588 115.533 52.0251 104.834 53.8146 94.432C55.604 84.0302 60.4364 74.3921 67.7012 66.7356C74.9659 59.079 84.3371 53.7474 94.6306 51.4145C108.457 48.3238 122.944 50.8381 134.92 58.4069C146.896 65.9756 155.384 77.9818 158.527 91.7961Z" fill="#FFD600"/>
<path d="M178.599 254.079L197.599 243.37L170 194.378L151 205.088L178.599 254.079Z" fill="#353535"/>
<path d="M137.203 86.7L137.091 86.5273C136.588 85.7292 137.633 87.2911 137.257 86.7792C136.881 86.2673 136.402 85.5382 135.943 84.9511C134.33 82.8639 132.544 80.9158 130.605 79.127L129.776 78.3749C129.693 78.2996 130.45 78.9462 129.776 78.3749L129.249 77.9275C128.577 77.3704 127.893 76.8294 127.182 76.3067C125.623 75.1558 123.991 74.1083 122.295 73.1708C121.902 72.9509 121.481 72.735 121.076 72.5314C120.67 72.3277 121.71 72.8187 120.952 72.4763L120.207 72.1178C119.232 71.6756 118.263 71.276 117.258 70.925C116.186 70.541 115.096 70.2111 113.991 69.9363C113.478 69.7912 112.97 69.6745 112.489 69.5538C111.605 69.345 112.874 69.6155 112.222 69.5045L111.299 69.3301C108.503 68.8763 105.67 68.6976 102.839 68.7967L102.697 68.8166C103.123 68.7567 102.47 68.8486 102.399 68.8586L101.149 69.0343C100.354 69.1462 99.5589 69.258 98.7636 69.3699C97.0595 69.6095 95.4038 69.9872 93.7399 70.4095C92.7928 70.5849 91.8149 70.377 91.0211 69.8314C90.2274 69.2858 89.6829 68.4472 89.5075 67.5002C89.332 66.5531 89.54 65.5752 90.0856 64.7815C90.6312 63.9877 91.4698 63.4433 92.4168 63.2678C102.918 60.4346 114.085 61.4308 123.919 66.0781C130.495 69.2942 136.283 73.919 140.87 79.6239C141.899 80.8788 142.848 82.1962 143.713 83.5686C144.124 84.4365 144.179 85.431 143.865 86.3387C143.552 87.2464 142.895 87.9951 142.036 88.4242C141.166 88.8204 140.177 88.8672 139.273 88.555C138.369 88.2428 137.62 87.5954 137.18 86.7466L137.203 86.7Z" fill="white"/>
</g>
<defs>
<clipPath id="clip0_3_82029">
<rect width="217" height="217" fill="white"/>
</clipPath>
</defs>
</svg>
