<svg width="20" height="27" viewBox="0 0 20 27" fill="none" xmlns="http://www.w3.org/2000/svg">
<path d="M10.585 0.75L10.6006 0.751953C10.8345 0.781936 11.0955 0.807665 11.3457 0.849609L11.3447 0.850586C14.9782 1.45494 17.5027 3.50496 18.8428 6.98145L18.9756 7.34961C19.556 9.07248 19.5649 10.8239 19.0801 12.5771L18.9688 12.9531C18.6634 13.9178 18.239 14.8162 17.7246 15.667L17.499 16.0293C16.4904 17.5881 15.4795 19.1468 14.4668 20.7041L11.4229 25.373C11.259 25.6226 11.0369 25.8754 10.7715 26.0469L10.7725 26.0479C10.1958 26.423 9.47232 26.2508 9.03516 25.7529L9.0332 25.751C8.97946 25.6886 8.9281 25.6237 8.87891 25.5576L8.73828 25.3555L2.67969 16.0322C1.84523 14.7483 1.23475 13.3647 0.927734 11.8545L0.870117 11.5508C0.622961 10.1242 0.768716 8.72335 1.19336 7.36523L1.29395 7.06152C1.81789 5.558 2.6773 4.26628 3.85645 3.19141L4.12402 2.95605C5.47483 1.80845 7.03169 1.10886 8.78906 0.851562L8.79004 0.850586L9.5752 0.751953L9.59082 0.75H10.585ZM13.2471 2.99707C12.0729 2.46865 10.7476 2.26582 9.27246 2.39941L8.97559 2.43066C7.89135 2.56045 6.89161 2.9474 5.97363 3.54199L5.58496 3.80859C4.19805 4.82242 3.23001 6.15353 2.70117 7.7998V7.80078C2.36036 8.85573 2.23103 9.9341 2.38379 11.0322V11.0332L2.42676 11.3096C2.66141 12.6839 3.21096 13.9416 3.96973 15.1152L7.03418 19.8418C8.05189 21.4072 9.07035 22.9721 10.0889 24.5381L10.125 24.4873C11.3167 22.6561 12.5103 20.8282 13.6943 18.9932L15.2021 16.6582C15.7014 15.8793 16.1948 15.0977 16.6748 14.3076L16.9062 13.9004C17.417 12.9375 17.7235 11.888 17.8223 10.7871L17.8457 10.4492C17.9285 8.76755 17.4856 7.20713 16.5225 5.82715V5.82812C15.595 4.50163 14.4994 3.5608 13.2471 2.99707Z" fill="#FFD600" stroke="#FFD600" stroke-width="0.5"/>
<path d="M10.1008 5.09766L10.3596 5.10547C13.0231 5.25231 15.1448 7.49878 15.1497 10.2266L15.1428 10.4912C15.0117 13.202 12.8038 15.3665 10.093 15.3691H10.0901C7.29157 15.3691 5.02608 13.0647 5.02856 10.2314C5.02886 7.40586 7.3107 5.09028 10.0999 5.09766H10.1008ZM10.137 6.68359C8.33738 6.62526 6.76675 8.08454 6.60571 9.96191L6.59497 10.1445C6.52636 12.0573 8.06835 13.7227 9.9563 13.7832L10.1379 13.7842C12.0056 13.7496 13.5185 12.2545 13.5833 10.3154L13.5842 10.1348C13.5516 8.33606 12.1404 6.84332 10.3225 6.69336L10.1389 6.68359H10.137Z" fill="#FFD600" stroke="#FFD600" stroke-width="0.5"/>
</svg>
