<svg width="231" height="49" viewBox="0 0 231 49" fill="none" xmlns="http://www.w3.org/2000/svg">
<path d="M71.3495 17.7458C71.1981 17.988 71.0367 18.1696 70.8652 18.2906C70.7038 18.4117 70.4919 18.4722 70.2296 18.4722C69.9976 18.4722 69.7453 18.4016 69.4729 18.2604C69.2106 18.109 68.9079 17.9426 68.5649 17.761C68.232 17.5794 67.8486 17.4179 67.4148 17.2767C66.9809 17.1254 66.4866 17.0497 65.9317 17.0497C64.9732 17.0497 64.2569 17.2565 63.7827 17.6702C63.3186 18.0737 63.0866 18.6236 63.0866 19.3197C63.0866 19.7636 63.2278 20.1319 63.5103 20.4245C63.7928 20.717 64.1611 20.9693 64.6151 21.1811C65.0792 21.393 65.6038 21.5897 66.1889 21.7713C66.7842 21.9429 67.3895 22.1396 68.005 22.3616C68.6204 22.5734 69.2207 22.8256 69.8059 23.1182C70.4011 23.4108 70.9257 23.7841 71.3797 24.2381C71.8438 24.6921 72.2171 25.247 72.4996 25.9028C72.7821 26.5485 72.9234 27.3304 72.9234 28.2485C72.9234 29.2675 72.7468 30.2209 72.3937 31.1087C72.0406 31.9966 71.526 32.7734 70.8501 33.4393C70.1842 34.0951 69.3569 34.6147 68.3682 34.998C67.3895 35.3713 66.2747 35.558 65.0237 35.558C64.3376 35.558 63.6364 35.4874 62.9201 35.3461C62.2139 35.2049 61.5278 35.0081 60.862 34.7559C60.1961 34.4936 59.5706 34.1859 58.9854 33.8328C58.4002 33.4796 57.8907 33.0862 57.4569 32.6523L58.9703 30.2612C59.0812 30.0796 59.2376 29.9334 59.4394 29.8224C59.6412 29.7114 59.8581 29.6559 60.0901 29.6559C60.3928 29.6559 60.6955 29.7518 60.9982 29.9434C61.3109 30.1351 61.659 30.347 62.0424 30.5791C62.4358 30.8111 62.8848 31.023 63.3892 31.2147C63.8937 31.4064 64.489 31.5022 65.175 31.5022C66.1032 31.5022 66.8246 31.3004 67.3391 30.8969C67.8536 30.4832 68.1109 29.8325 68.1109 28.9446C68.1109 28.4301 67.9697 28.0114 67.6872 27.6886C67.4047 27.3657 67.0314 27.0983 66.5673 26.8865C66.1133 26.6746 65.5937 26.488 65.0085 26.3265C64.4234 26.1651 63.8231 25.9886 63.2076 25.7969C62.5922 25.5951 61.9919 25.3529 61.4068 25.0705C60.8216 24.7779 60.297 24.3995 59.8329 23.9354C59.3789 23.4613 59.0106 22.8761 58.7281 22.1799C58.4456 21.4737 58.3044 20.6061 58.3044 19.577C58.3044 18.7497 58.4709 17.9426 58.8038 17.1556C59.1367 16.3687 59.626 15.6675 60.2717 15.0521C60.9174 14.4366 61.7094 13.9473 62.6477 13.5841C63.586 13.2108 64.6605 13.0242 65.8711 13.0242C66.5471 13.0242 67.2029 13.0797 67.8385 13.1906C68.4842 13.2915 69.0946 13.4479 69.6697 13.6598C70.2447 13.8616 70.7794 14.1087 71.2738 14.4013C71.7783 14.6838 72.2272 15.0067 72.6207 15.3699L71.3495 17.7458Z" fill="black"/>
<path d="M89.6608 13.2663V17.201H80.611V22.3464H87.5421V26.1298H80.611V31.3811H89.6608V35.3158H75.4656V13.2663H89.6608Z" fill="black"/>
<path d="M95.2732 13.2663C95.4952 13.2663 95.6818 13.2764 95.8331 13.2966C95.9845 13.3168 96.1207 13.3571 96.2417 13.4176C96.3628 13.4681 96.4788 13.5438 96.5898 13.6446C96.7008 13.7455 96.8269 13.8817 96.9682 14.0532L107.441 27.2951C107.4 26.8713 107.37 26.4627 107.35 26.0693C107.33 25.6657 107.319 25.2874 107.319 24.9342V13.2663H111.829V35.3158H109.166C108.772 35.3158 108.439 35.2553 108.167 35.1342C107.895 35.0132 107.632 34.7912 107.38 34.4684L96.9833 21.3325C97.0136 21.7159 97.0388 22.0942 97.059 22.4675C97.0791 22.8307 97.0892 23.1737 97.0892 23.4966V35.3158H92.5794V13.2663H95.2732Z" fill="black"/>
<path d="M130.273 29.6105C130.394 29.6105 130.515 29.6357 130.636 29.6862C130.757 29.7265 130.873 29.8022 130.984 29.9132L133.012 32.047C132.124 33.2072 131.009 34.085 129.667 34.6802C128.336 35.2654 126.757 35.558 124.931 35.558C123.256 35.558 121.753 35.2755 120.421 34.7105C119.099 34.1354 117.974 33.3485 117.046 32.3497C116.128 31.3408 115.422 30.1503 114.927 28.7782C114.433 27.396 114.186 25.8978 114.186 24.2835C114.186 22.639 114.468 21.1307 115.033 19.7586C115.598 18.3764 116.385 17.1859 117.394 16.1871C118.413 15.1883 119.629 14.4114 121.041 13.8565C122.454 13.3016 124.013 13.0242 125.718 13.0242C126.545 13.0242 127.322 13.0998 128.048 13.2512C128.785 13.3924 129.471 13.5942 130.106 13.8565C130.742 14.1087 131.327 14.4165 131.862 14.7797C132.397 15.1328 132.871 15.5262 133.284 15.9601L131.559 18.2755C131.448 18.4167 131.317 18.5479 131.166 18.669C131.014 18.78 130.802 18.8354 130.53 18.8354C130.348 18.8354 130.177 18.7951 130.016 18.7144C129.854 18.6337 129.683 18.5378 129.501 18.4268C129.319 18.3058 129.118 18.1797 128.896 18.0485C128.684 17.9073 128.426 17.7811 128.124 17.6702C127.831 17.5491 127.483 17.4482 127.08 17.3675C126.686 17.2868 126.222 17.2464 125.687 17.2464C124.759 17.2464 123.912 17.4129 123.145 17.7458C122.378 18.0687 121.717 18.5378 121.162 19.1532C120.618 19.7586 120.189 20.4951 119.876 21.3627C119.573 22.2304 119.422 23.204 119.422 24.2835C119.422 25.4135 119.573 26.4173 119.876 27.2951C120.189 28.1728 120.608 28.9144 121.132 29.5197C121.667 30.115 122.287 30.569 122.994 30.8817C123.7 31.1945 124.456 31.3509 125.264 31.3509C125.728 31.3509 126.151 31.3307 126.535 31.2903C126.918 31.2399 127.271 31.1592 127.594 31.0482C127.927 30.9372 128.24 30.796 128.532 30.6245C128.835 30.4429 129.138 30.2209 129.44 29.9586C129.562 29.8577 129.693 29.777 129.834 29.7164C129.975 29.6458 130.121 29.6105 130.273 29.6105Z" fill="black"/>
<path d="M157.111 24.2835C157.111 25.8776 156.834 27.3607 156.279 28.7328C155.734 30.1049 154.962 31.3004 153.964 32.3194C152.965 33.3283 151.759 34.1203 150.347 34.6954C148.944 35.2704 147.386 35.558 145.67 35.558C143.955 35.558 142.392 35.2704 140.979 34.6954C139.567 34.1203 138.356 33.3283 137.347 32.3194C136.348 31.3004 135.571 30.1049 135.016 28.7328C134.472 27.3607 134.199 25.8776 134.199 24.2835C134.199 22.6894 134.472 21.2064 135.016 19.8343C135.571 18.4621 136.348 17.2716 137.347 16.2627C138.356 15.2538 139.567 14.4619 140.979 13.8868C142.392 13.3117 143.955 13.0242 145.67 13.0242C147.386 13.0242 148.944 13.3168 150.347 13.9019C151.759 14.477 152.965 15.269 153.964 16.2779C154.962 17.2868 155.734 18.4773 156.279 19.8494C156.834 21.2215 157.111 22.6995 157.111 24.2835ZM151.875 24.2835C151.875 23.1939 151.734 22.2153 151.451 21.3476C151.169 20.4699 150.76 19.7283 150.226 19.123C149.701 18.5176 149.055 18.0535 148.289 17.7307C147.522 17.4078 146.649 17.2464 145.67 17.2464C144.682 17.2464 143.799 17.4078 143.022 17.7307C142.255 18.0535 141.605 18.5176 141.07 19.123C140.545 19.7283 140.142 20.4699 139.859 21.3476C139.577 22.2153 139.435 23.1939 139.435 24.2835C139.435 25.3832 139.577 26.3719 139.859 27.2497C140.142 28.1173 140.545 28.8538 141.07 29.4592C141.605 30.0645 142.255 30.5286 143.022 30.8515C143.799 31.1642 144.682 31.3206 145.67 31.3206C146.649 31.3206 147.522 31.1642 148.289 30.8515C149.055 30.5286 149.701 30.0645 150.226 29.4592C150.76 28.8538 151.169 28.1173 151.451 27.2497C151.734 26.3719 151.875 25.3832 151.875 24.2835Z" fill="black"/>
<path fill-rule="evenodd" clip-rule="evenodd" d="M163.294 12.8833C162.381 12.8833 161.617 13.1746 161.023 13.7603L161.021 13.7623L161.019 13.7644C160.454 14.3466 160.193 15.1652 160.193 16.1818V35.4018H161.851V16.1818C161.851 15.4954 162.003 15.0412 162.253 14.7691C162.509 14.5223 162.846 14.3928 163.294 14.3928C163.77 14.3928 164.119 14.5256 164.372 14.772C164.63 15.0317 164.788 15.4822 164.788 16.1818V35.4171H174.942C175.873 35.4171 176.639 35.2076 177.209 34.7586L177.211 34.7563C177.789 34.2874 178.077 33.6767 178.077 32.9461C178.077 32.2334 177.787 31.63 177.214 31.1531L177.214 31.153C176.645 30.6811 175.876 30.4597 174.942 30.4597H168.323V31.9693H174.942C175.502 31.9693 175.865 32.0852 176.086 32.271L176.089 32.273L176.091 32.2749C176.311 32.4513 176.419 32.6686 176.419 32.9461C176.419 33.2525 176.311 33.4634 176.114 33.6129L176.11 33.6152L176.107 33.6177C175.887 33.7951 175.517 33.9076 174.942 33.9076H166.446V16.1818C166.446 15.1533 166.172 14.3277 165.583 13.7451L165.581 13.7432C164.986 13.1676 164.215 12.8833 163.294 12.8833ZM182.365 12.8833C181.484 12.8833 180.738 13.1706 180.146 13.7432L180.143 13.7461L180.14 13.7491C179.577 14.33 179.314 15.1322 179.314 16.1205V20.8135H180.955V16.1205C180.955 15.4531 181.108 15.0147 181.358 14.7534C181.603 14.5067 181.929 14.3775 182.365 14.3775C182.829 14.3775 183.173 14.5096 183.428 14.7581L183.428 14.7583C183.684 15.0073 183.842 15.4414 183.842 16.1205V19.1218L179.314 23.7956V32.1492C179.314 33.1483 179.583 33.9567 180.159 34.538L180.159 34.5382C180.74 35.1233 181.482 35.4171 182.365 35.4171C183.276 35.4171 184.04 35.1321 184.635 34.5572L184.637 34.5553L184.639 34.5533C185.215 33.9716 185.483 33.1577 185.483 32.1492V22.6752H183.842V32.1492C183.842 32.8376 183.684 33.2836 183.426 33.5437C183.172 33.7913 182.828 33.9229 182.365 33.9229C181.944 33.9229 181.623 33.7916 181.376 33.5334L181.375 33.5315L181.373 33.5297C181.113 33.2692 180.955 32.8274 180.955 32.1492V24.3518L185.483 19.6934V16.1205C185.483 15.1202 185.208 14.311 184.62 13.7298L184.618 13.728C184.034 13.1621 183.274 12.8833 182.365 12.8833ZM193.282 12.8833H191.164L191.629 13.3066L192.742 14.8187L197.034 20.6721L204.218 30.5724V15.9826C204.218 15.3534 204.354 14.9437 204.574 14.7027C204.77 14.4934 205.052 14.3775 205.459 14.3775C205.878 14.3775 206.172 14.494 206.379 14.7047C206.598 14.9459 206.734 15.3551 206.734 15.9826V31.996C206.734 32.6268 206.638 33.0489 206.483 33.2983C206.317 33.5652 206.121 33.7227 205.903 33.8001C205.64 33.8826 205.38 33.9229 205.122 33.9229C204.8 33.9229 204.532 33.8803 204.313 33.8021L204.308 33.8004L204.303 33.7988C204.083 33.729 203.866 33.6141 203.654 33.4491C203.413 33.2481 203.191 33.0175 202.989 32.7568L202.989 32.756C202.743 32.4409 202.503 32.1308 202.269 31.8259L191.297 16.4903L190.051 14.759L190.051 14.7582L189.24 13.6218L189.001 13.8488C188.728 14.1087 188.512 14.4057 188.354 14.7385C188.339 14.7602 188.324 14.7863 188.315 14.8164C188.307 14.8333 188.299 14.8545 188.293 14.8787C188.116 15.341 188.033 15.9217 188.033 16.6109V32.3025C188.033 33.2299 188.279 33.9893 188.806 34.5486L188.807 34.55L188.809 34.5513C189.368 35.1285 190.095 35.4171 190.966 35.4171C191.825 35.4171 192.546 35.1344 193.105 34.5693C193.659 34.0185 193.916 33.2504 193.916 32.3025V24.0084H192.275V32.3025C192.275 32.9291 192.128 33.3359 191.891 33.5763L191.89 33.577C191.668 33.8035 191.37 33.9229 190.966 33.9229C190.564 33.9229 190.267 33.8045 190.045 33.5799C189.814 33.3269 189.675 32.9161 189.675 32.3025V16.9651L192.319 20.6546L200.906 32.6556L200.908 32.6581C201.155 32.986 201.403 33.3088 201.65 33.6266L201.652 33.6289C201.932 33.979 202.237 34.2887 202.566 34.5568C202.927 34.8517 203.321 35.0686 203.75 35.203C204.166 35.3472 204.624 35.4171 205.122 35.4171C205.428 35.4171 205.758 35.3782 206.11 35.3033L206.113 35.3027L206.116 35.3019C206.503 35.2111 206.862 35.047 207.192 34.813L207.193 34.8122C207.414 34.6543 207.606 34.4572 207.772 34.2243C207.873 34.0855 207.965 33.9306 208.047 33.7596C208.082 33.6864 208.115 33.6092 208.144 33.5279C208.301 33.1042 208.375 32.5908 208.375 31.996V15.9826C208.375 15.0475 208.136 14.2872 207.619 13.7368L207.618 13.7354L207.617 13.734C207.067 13.1648 206.338 12.8833 205.459 12.8833C204.589 12.8833 203.871 13.1657 203.333 13.7362L203.332 13.7368C202.816 14.2872 202.576 15.0475 202.576 15.9826V25.6043L198.399 19.8449L198.398 19.8444L197.102 18.0668L194.089 13.9594L193.282 12.8833ZM202.566 34.5568L202.567 34.557L202.749 34.3712L202.566 34.5563L202.566 34.5568ZM228.612 34.1117C228.748 34.06 228.864 33.994 228.96 33.9136C229.209 33.7185 229.333 33.4413 229.333 33.0818C229.333 32.8132 229.271 32.5908 229.147 32.4146C229.215 32.584 229.247 32.773 229.247 32.9767C229.247 33.3892 229.102 33.7395 228.785 33.9904C228.731 34.0349 228.673 34.0753 228.612 34.1117ZM216.152 31.5324V28.2609H216.135V31.5324H216.152ZM217.286 30.5057V28.0909H217.262V27.7627H215.588V32.0305H227.324C227.878 32.0305 228.222 32.1385 228.418 32.3022L228.421 32.3047L228.424 32.3071C228.595 32.4416 228.7 32.6499 228.7 32.9767C228.7 33.2781 228.599 33.4786 228.424 33.6157L228.421 33.6181L228.418 33.6206C228.222 33.7843 227.878 33.8923 227.324 33.8923H214.616C213.785 33.8923 213.285 33.7353 213.028 33.4931L213.026 33.4916L213.025 33.4902C212.767 33.2559 212.6 32.8002 212.6 32.042V26.0543H226.129C227.002 26.0543 227.719 25.8651 228.242 25.4538C228.323 25.403 228.399 25.3475 228.47 25.2874C228.944 24.8767 229.18 24.3581 229.18 23.7316C229.18 23.2735 229.051 22.8758 228.791 22.5385C228.663 22.3262 228.493 22.1324 228.282 21.9583L228.281 21.9579C227.755 21.5252 227.024 21.3267 226.129 21.3267H217.286V17.6874H226.954C227.882 17.6874 228.64 17.4841 229.188 17.0427L229.191 17.0406L229.193 17.0384C229.257 16.9848 229.316 16.9293 229.372 16.8721C229.853 16.462 230.094 15.9347 230.094 15.2902C230.094 14.7171 229.898 14.2356 229.505 13.8455C229.413 13.7353 229.31 13.6308 229.193 13.5323L229.191 13.5301L229.188 13.528C228.64 13.0866 227.882 12.8833 226.954 12.8833H214.616C213.849 12.8833 213.191 12.9887 212.651 13.2121L212.648 13.2134C212.04 13.473 211.59 13.8831 211.304 14.4363L211.304 14.4368C211.047 14.9389 210.925 15.5496 210.925 16.2584V22.8362H212.6V16.2584C212.6 15.7488 212.675 15.3588 212.811 15.0753C212.93 14.8519 213.102 14.6974 213.331 14.6008C213.643 14.477 214.067 14.4081 214.616 14.4081H226.954C227.524 14.4081 227.866 14.5131 228.048 14.6648L228.054 14.6694L228.06 14.6736C228.23 14.8008 228.329 14.9888 228.329 15.2777C228.329 15.5795 228.228 15.7713 228.06 15.8971L228.054 15.9014L228.048 15.9059C227.866 16.0576 227.524 16.1626 226.954 16.1626H215.588V22.8516H226.129C226.665 22.8516 226.985 22.9511 227.157 23.0933L227.162 23.0981L227.169 23.1026C227.326 23.2185 227.421 23.3949 227.421 23.6752C227.421 23.9547 227.326 24.1484 227.157 24.2873L227.155 24.2894L227.152 24.2916C226.994 24.4286 226.68 24.5294 226.129 24.5294H210.925V32.042C210.925 33.1294 211.209 33.9895 211.826 34.5744L211.828 34.5762L211.83 34.578C212.462 35.1536 213.41 35.4171 214.616 35.4171H227.324C228.015 35.4171 228.612 35.2987 229.099 35.0477C229.334 34.9541 229.541 34.8329 229.722 34.6838C230.218 34.2628 230.466 33.7288 230.466 33.0818C230.466 32.6417 230.358 32.2551 230.143 31.9222C230.005 31.6423 229.807 31.3908 229.547 31.1702L229.544 31.1679C228.996 30.7154 228.243 30.5057 227.324 30.5057H217.286ZM227.56 24.6261C227.609 24.5977 227.652 24.5666 227.691 24.5326C227.928 24.3375 228.047 24.0705 228.047 23.7316C228.047 23.475 227.979 23.2655 227.843 23.1031C227.928 23.2725 227.968 23.4654 227.968 23.6752C227.968 24.054 227.838 24.3801 227.56 24.6261ZM216.152 22.3534V16.6607H216.135V22.3534H216.152ZM228.61 16.0903C228.843 15.9059 228.96 15.6393 228.96 15.2902C228.96 14.9799 228.862 14.7346 228.666 14.554C228.809 14.7586 228.877 15.0039 228.877 15.2777C228.877 15.5918 228.793 15.8691 228.61 16.0903Z" fill="black"/>
<path d="M28.2497 6.21868C27.9139 2.67389 24.9715 0 21.406 0C17.6143 0 14.5297 3.08465 14.5297 6.87629C14.5297 7.13302 14.5455 7.39764 14.5761 7.66325C14.6274 7.8795 14.6817 8.07599 14.7429 8.2636C15.3561 10.1505 16.6546 11.679 18.4003 12.5687C18.8367 12.7909 19.0115 13.327 18.7883 13.7644C18.6363 14.0636 18.3322 14.2502 17.9964 14.2502C17.8572 14.2502 17.718 14.2167 17.5936 14.1535C15.4252 13.0486 13.8128 11.1527 13.0535 8.81457C13.01 8.67929 12.9676 8.5381 12.9251 8.37814C12.0049 7.91307 10.978 7.66819 9.94317 7.66819C6.29076 7.66819 3.31966 10.6393 3.31966 14.2917C3.31966 15.3463 3.56058 16.3534 4.03454 17.2865L4.0454 17.3082C4.39889 17.9965 4.86692 18.6146 5.43665 19.1438L6.13771 19.7955C6.65807 20.1885 7.23176 20.5124 7.85086 20.7632C9.69039 21.5067 11.6958 21.4938 13.4988 20.7286C13.9501 20.537 14.4724 20.7484 14.664 21.1996C14.7568 21.4178 14.7587 21.6597 14.6699 21.8799C14.581 22.1001 14.4112 22.2719 14.193 22.3647C13.0594 22.8456 11.8656 23.0895 10.6442 23.0895C9.42281 23.0895 8.29914 22.8614 7.18436 22.4102C5.83161 21.8631 4.62599 21.0061 3.68401 19.9239C1.53542 20.4028 0 22.3055 0 24.5291C0 26.7528 1.52258 28.6357 3.65142 29.1285C4.5707 28.1351 5.6835 27.3699 6.96022 26.8545C9.24014 25.9332 11.7294 25.95 13.9688 26.9009C14.187 26.9937 14.3569 27.1655 14.4457 27.3857C14.5346 27.6059 14.5326 27.8468 14.4398 28.066C14.2483 28.5163 13.7259 28.7276 13.2747 28.537C10.6373 27.4173 7.57636 27.9347 5.44258 29.8512L5.37346 29.9174C4.04836 31.1813 3.31867 32.8836 3.31867 34.7103C3.31867 38.3627 6.28977 41.3338 9.94218 41.3338C10.9967 41.3338 12.0414 41.08 12.9755 40.5982C13.0012 40.5113 13.0268 40.4283 13.0525 40.3474C13.8118 38.0092 15.4243 36.1134 17.5926 35.0085C18.029 34.7863 18.5652 34.9601 18.7874 35.3965C19.0095 35.8329 18.8357 36.3691 18.3993 36.5913C16.6546 37.4809 15.3551 39.0094 14.742 40.8964C14.6679 41.1254 14.6027 41.3624 14.5504 41.6004C14.5366 41.7821 14.5297 41.9539 14.5297 42.1237C14.5297 45.9153 17.6143 49 21.406 49C24.9626 49 27.9051 46.334 28.2487 42.7991L28.2822 42.4555V6.55736L28.2497 6.21868ZM25.163 37.4059H23.3097C22.9009 37.4059 22.5691 37.0741 22.5691 36.6653C22.5691 36.2565 22.9009 35.9248 23.3097 35.9248H25.163C25.5718 35.9248 25.9036 36.2565 25.9036 36.6653C25.9036 37.0741 25.5718 37.4059 25.163 37.4059ZM25.163 31.3975H21.9194C21.5106 31.3975 21.1789 31.0658 21.1789 30.657C21.1789 30.2482 21.5106 29.9164 21.9194 29.9164H25.163C25.5718 29.9164 25.9036 30.2482 25.9036 30.657C25.9036 31.0658 25.5718 31.3975 25.163 31.3975ZM25.163 25.3892H20.5301C20.1213 25.3892 19.7896 25.0574 19.7896 24.6486C19.7896 24.2398 20.1213 23.9081 20.5301 23.9081H25.163C25.5718 23.9081 25.9036 24.2398 25.9036 24.6486C25.9036 25.0574 25.5718 25.3892 25.163 25.3892ZM25.163 19.3808H21.9194C21.5106 19.3808 21.1789 19.049 21.1789 18.6402C21.1789 18.2315 21.5106 17.8997 21.9194 17.8997H25.163C25.5718 17.8997 25.9036 18.2315 25.9036 18.6402C25.9036 19.049 25.5718 19.3808 25.163 19.3808ZM25.163 13.3724H23.3097C22.9009 13.3724 22.5691 13.0407 22.5691 12.6319C22.5691 12.2231 22.9009 11.8913 23.3097 11.8913H25.163C25.5718 11.8913 25.9036 12.2231 25.9036 12.6319C25.9036 13.0407 25.5718 13.3724 25.163 13.3724Z" fill="black"/>
<path d="M31.7313 12.8364H33.3675C33.5383 12.8364 33.7002 12.7634 33.8128 12.635L38.4418 7.36523L43.0263 7.37708C43.2781 8.31413 44.1322 9.00433 45.1492 9.00433C46.3627 9.00433 47.3472 8.01989 47.3472 6.80636C47.3472 5.59284 46.3627 4.6084 45.1492 4.6084C44.149 4.6084 43.3047 5.27687 43.0391 6.1922L38.1771 6.17936H38.1752C38.0043 6.17936 37.8424 6.25243 37.7298 6.38079L33.0999 11.6516H31.7323C31.4055 11.6516 31.1399 11.9172 31.1399 12.244C31.1399 12.5708 31.4055 12.8364 31.7323 12.8364H31.7313ZM45.1482 5.57211C45.8295 5.57211 46.3825 6.12505 46.3825 6.80636C46.3825 7.48767 45.8295 8.04062 45.1482 8.04062C44.4669 8.04062 43.914 7.48767 43.914 6.80636C43.914 6.12505 44.4669 5.57211 45.1482 5.57211Z" fill="black"/>
<path d="M31.4355 19.1646C31.4415 19.1646 31.4474 19.1646 31.4533 19.1646L36.3301 19.0244C36.4901 19.0194 36.6412 18.9503 36.7498 18.8328L39.9016 15.3947H41.3057C41.5644 16.3208 42.4135 17.0002 43.4217 17.0002C44.6352 17.0002 45.6196 16.0157 45.6196 14.8022C45.6196 13.5887 44.6352 12.6042 43.4217 12.6042C42.4135 12.6042 41.5644 13.2836 41.3057 14.2098H39.6409C39.475 14.2098 39.316 14.2799 39.2045 14.4023L36.0457 17.8484L31.4198 17.9817C31.0929 17.9905 30.8352 18.2641 30.8441 18.5909C30.853 18.9118 31.1166 19.1665 31.4355 19.1665V19.1646ZM43.4217 13.568C44.103 13.568 44.6559 14.1209 44.6559 14.8022C44.6559 15.4835 44.103 16.0365 43.4217 16.0365C42.7404 16.0365 42.2388 15.5319 42.1923 14.8931C42.1973 14.8634 42.2002 14.8338 42.2002 14.8022C42.2002 14.7706 42.1973 14.741 42.1923 14.7114C42.2388 14.0725 42.771 13.568 43.4217 13.568Z" fill="black"/>
<path d="M35.3079 23.8939C35.2901 23.8919 35.2714 23.8909 35.2536 23.8909H31.4718C31.145 23.8909 30.8794 24.1565 30.8794 24.4834C30.8794 24.8102 31.145 25.0758 31.4718 25.0758H35.2536C35.2724 25.0758 35.2901 25.0748 35.3079 25.0728C35.5656 26 36.4158 26.6813 37.4249 26.6813C38.6384 26.6813 39.6229 25.6969 39.6229 24.4834C39.6229 23.2698 38.6384 22.2854 37.4249 22.2854C36.4158 22.2854 35.5656 22.9657 35.3079 23.8939ZM38.6592 24.4834C38.6592 25.1647 38.1062 25.7176 37.4249 25.7176C36.7436 25.7176 36.1906 25.1647 36.1906 24.4834C36.1906 23.8021 36.7436 23.2491 37.4249 23.2491C38.1062 23.2491 38.6592 23.8021 38.6592 24.4834Z" fill="black"/>
<path d="M45.1488 39.9749C44.1653 39.9749 43.332 40.6217 43.0515 41.5133L38.4413 41.5261L33.8124 36.2564C33.6998 36.128 33.5379 36.0549 33.3671 36.0549H31.7309C31.4041 36.0549 31.1385 36.3205 31.1385 36.6474C31.1385 36.9742 31.4041 37.2398 31.7309 37.2398H33.0985L37.7284 42.5106C37.841 42.639 38.0029 42.712 38.1738 42.712H38.1757L43.014 42.6992C43.249 43.6589 44.116 44.3718 45.1488 44.3718C46.3623 44.3718 47.3467 43.3874 47.3467 42.1739C47.3467 40.9604 46.3623 39.9759 45.1488 39.9759V39.9749ZM45.1488 43.4072C44.4675 43.4072 43.9145 42.8542 43.9145 42.1729C43.9145 41.4916 44.4675 40.9386 45.1488 40.9386C45.8301 40.9386 46.383 41.4916 46.383 42.1729C46.383 42.8542 45.8301 43.4072 45.1488 43.4072Z" fill="black"/>
<path d="M36.0445 31.5129L39.2032 34.9589C39.3157 35.0814 39.4737 35.1515 39.6396 35.1515H41.3281C41.6124 36.0352 42.4419 36.675 43.4204 36.675C44.6339 36.675 45.6183 35.6906 45.6183 34.4771C45.6183 33.2636 44.6339 32.2791 43.4204 32.2791C42.3826 32.2791 41.5127 32.9989 41.2826 33.9666H39.9003L36.7485 30.5284C36.6399 30.4099 36.4888 30.3408 36.3288 30.3369L31.452 30.1967C31.1242 30.1898 30.8527 30.4445 30.8428 30.7723C30.8329 31.1001 31.0906 31.3717 31.4185 31.3816L36.0445 31.5149V31.5129ZM43.4204 33.2418C44.1017 33.2418 44.6546 33.7948 44.6546 34.4761C44.6546 35.1574 44.1017 35.7103 43.4204 35.7103C42.7874 35.7103 42.2661 35.2334 42.195 34.6193C42.197 34.5995 42.198 34.5788 42.198 34.558C42.198 34.5205 42.194 34.483 42.1871 34.4474C42.2029 33.779 42.7479 33.2418 43.4204 33.2418Z" fill="black"/>
</svg>
